<?xml version="1.0" encoding="UTF-8"?>
<svg id="Layer_2" data-name="Layer 2" xmlns="http://www.w3.org/2000/svg" viewBox="0 0 349.92 235.02">
  <defs>
    <style>
      .cls-1 {
        fill: #fff;
      }
    </style>
  </defs>
  <g id="Layer_1-2" data-name="Layer 1">
    <path class="cls-1" d="m21.09,148.21h0c-14.64,0-23.76-11.86-20.38-26.5L22.68,26.5C26.06,11.86,40.67,0,55.3,0h0c14.64,0,23.76,11.86,20.38,26.5l-21.98,95.21c-3.38,14.64-17.98,26.5-32.62,26.5Z"/>
    <path class="cls-1" d="m113.86,140.54h0c-14.64,0-23.76-11.86-20.38-26.5h0c3.38-14.64,17.98-26.5,32.62-26.5h0c14.64,0,23.76,11.86,20.38,26.5h0c-3.38,14.64-17.98,26.5-32.62,26.5Z"/>
    <path class="cls-1" d="m183.06,235.02h0c-14.64,0-23.76-11.86-20.38-26.5L204.7,26.5C208.08,11.86,222.69,0,237.32,0h0c14.64,0,23.76,11.86,20.38,26.5l-42.02,182.02c-3.38,14.64-17.98,26.5-32.62,26.5Z"/>
    <path class="cls-1" d="m328.83,0h0c14.64,0,23.76,11.86,20.38,26.5l-20.21,87.54c-3.38,14.64-17.98,26.5-32.62,26.5h0c-14.64,0-23.76-11.86-20.38-26.5l20.21-87.54C299.59,11.86,314.2,0,328.83,0Z"/>
    <path class="cls-1" d="m274.07,235.02h0c-14.64,0-23.76-11.86-20.38-26.5h0c3.38-14.64,17.98-26.5,32.62-26.5h0c14.64,0,23.76,11.86,20.38,26.5h0c-3.38,14.64-17.98,26.5-32.62,26.5Z"/>
    <path class="cls-1" d="m183.06,235.02h-91.51c-14.64,0-23.76-11.86-20.38-26.5h0c3.38-14.64,17.98-26.5,32.62-26.5h91.51c14.64,0,23.76,11.86,20.38,26.5h0c-3.38,14.64-17.98,26.5-32.62,26.5Z"/>
    <path class="cls-1" d="m34.77,7.76h0c12.74-10.35,29.52-10.35,37.48,0l69.61,90.51c7.96,10.35,4.09,27.13-8.65,37.48h0c-12.74,10.35-29.52,10.35-37.48,0L26.12,45.24c-7.96-10.35-4.09-27.13,8.65-37.48Z"/>
    <path class="cls-1" d="m96.48,135.75h0c-7.96-10.35-4.09-27.13,8.65-37.48L216.54,7.76c12.74-10.35,29.52-10.35,37.48,0h0c7.96,10.35,4.09,27.13-8.65,37.48l-111.41,90.51c-12.74,10.35-29.52,10.35-37.48,0Z"/>
  </g>
</svg>